<?xml version="1.0" encoding="UTF-8" standalone="no"?>
<svg width="80px" height="80px" viewBox="0 0 80 80" version="1.1" xmlns="http://www.w3.org/2000/svg" xmlns:xlink="http://www.w3.org/1999/xlink" xmlns:sketch="http://www.bohemiancoding.com/sketch/ns">
    <!-- Generator: Sketch 3.3.2 (12043) - http://www.bohemiancoding.com/sketch -->
    <title>correct-answer</title>
    <desc>Created with Sketch.</desc>
    <defs></defs>
    <g id="Page-1" stroke="none" stroke-width="1" fill="none" fill-rule="evenodd" sketch:type="MSPage">
        <g id="correct-answer" sketch:type="MSLayerGroup" fill="#7ED321">
            <path d="M31.36,1.65 C49.33,-2.84 69.34,7.72 76.19,24.84 C81.43,36.66 79.88,50.94 72.72,61.63 C66.74,70.73 56.81,77.17 46.02,78.77 C34.09,80.82 21.36,76.64 12.72,68.19 C5.87,61.63 1.57,52.5 0.84,43.04 C-1.08,24.21 12.89,5.56 31.36,1.65 L31.36,1.65 Z M35.99,44.01 C41.91,36.29 47.88,28.6 53.93,20.98 C55.99,22.61 58.49,23.84 60.02,26.04 C60.12,27.39 58.91,28.29 58.26,29.34 C50.4,39.13 42.95,49.24 34.98,58.94 C29.69,54.17 24.33,49.39 19.56,44.09 C21.2,41.97 23.09,40.06 25.05,38.24 C28.11,40.42 30.38,43.48 33.32,45.79 C34.6,46.48 35.27,44.71 35.99,44.01 L35.99,44.01 Z" id="Shape" sketch:type="MSShapeGroup"></path>
        </g>
    </g>
</svg>