<?xml version="1.0" encoding="UTF-8" standalone="no"?>
<svg width="95px" height="95px" viewBox="0 0 95 95" version="1.1" xmlns="http://www.w3.org/2000/svg" xmlns:xlink="http://www.w3.org/1999/xlink" xmlns:sketch="http://www.bohemiancoding.com/sketch/ns">
    <!-- Generator: Sketch 3.3.2 (12043) - http://www.bohemiancoding.com/sketch -->
    <title>Shape</title>
    <desc>Created with Sketch.</desc>
    <defs></defs>
    <g id="Page-1" stroke="none" stroke-width="1" fill="none" fill-rule="evenodd" sketch:type="MSPage">
        <g id="incorrect-answer" sketch:type="MSLayerGroup" fill="#C6283C">
            <path d="M38.35,1.56 C50.8,-1.17 64.25,1.97 74.58,9.34 C84.65,16.48 91.77,27.7 93.71,39.91 C95.85,51.69 92.83,64.2 86.05,74 C78.93,84.36 67.54,91.74 55.1,93.7 C40.49,96.33 24.84,91.13 14.44,80.59 C6.28,72.54 1.32,61.42 0.7,49.98 C-0.95,27.46 16.16,5.6 38.35,1.56 L38.35,1.56 Z M24.65,31.07 C26.73,28.89 28.86,26.75 31.03,24.66 C36.79,29.83 41.9,35.66 47.62,40.87 C53.01,35.41 58.36,29.91 63.92,24.63 C66.11,26.73 68.26,28.88 70.36,31.08 C65.08,36.66 59.56,42 54.09,47.39 C59.35,53.07 65.14,58.23 70.34,63.96 C68.22,66.02 66.36,68.36 63.95,70.1 C58.09,65.26 53.09,59.39 47.6,54.12 C42.71,58.7 38.07,63.52 33.35,68.26 C32.53,68.8 31.61,70.61 30.48,69.7 C28.44,68 26.52,66.11 24.92,63.98 C29.68,58.08 35.6,53.08 40.88,47.61 C35.63,41.94 29.89,36.76 24.65,31.07 L24.65,31.07 Z" id="Shape" sketch:type="MSShapeGroup"></path>
        </g>
    </g>
</svg>